<?xml version="1.0" encoding="UTF-8" standalone="no"?>
<!-- Created with Inkscape (http://www.inkscape.org/) -->

<svg
   width="6.5267458mm"
   height="29.790361mm"
   viewBox="0 0 6.5267458 29.790361"
   version="1.1"
   id="svg1"
   xml:space="preserve"
   xmlns="http://www.w3.org/2000/svg"
   xmlns:svg="http://www.w3.org/2000/svg"
   xmlns:vectornator="http://vectornator.io"><defs
     id="defs1" /><g
     opacity="1"
     vectornator:layerName="im wind"
     id="g278"
     style="clip-rule:evenodd;display:inline;fill-rule:nonzero;stroke-linecap:round;stroke-linejoin:round"
     transform="matrix(1.9050924,0,0,1.9050924,-792.48741,-331.616)">





<path
   d="m 417.284,174.237 c -0.421,0.661 -0.511,1.383 -0.392,2.164 0.06,0.782 1.142,1.594 1.142,2.556 -0.089,0.841 -1.171,1.863 -1.142,2.825 0.03,0.842 1.264,1.443 1.264,2.616 -0.152,1.202 -1.834,3.217 -2.045,4.179 -0.3,0.751 0.06,1.563 0.602,0.811 0.481,-0.811 2.495,-4.058 2.675,-5.321 0.09,-1.353 -1.503,-1.413 -1.533,-2.285 -0.089,-0.901 1.533,-1.954 1.503,-2.916 -0.059,-1.142 -1.443,-2.254 -1.592,-3.096 -0.241,-0.812 -0.061,-1.413 0.42,-1.684 -0.283,0.042 -0.584,0.101 -0.885,0.167 z"
   fill="#000000"
   fill-rule="evenodd"
   opacity="1"
   stroke="#000000"
   stroke-linecap="butt"
   stroke-linejoin="miter"
   stroke-width="0.036"
   vectornator:layerName="path"
   id="path273" />
<path
   d="m 417.309,174.529 c -0.271,0.601 -0.271,1.202 -0.241,1.683 0.09,0.451 0.331,0.902 0.602,1.233 0.18,0.21 0.3,0.511 0.481,0.782 0.059,0.33 0.059,0.691 0,1.202 -0.211,0.481 -0.722,1.022 -0.842,1.503 -0.211,0.331 -0.271,0.391 -0.181,0.752 -0.03,0.24 0.3,0.751 0.541,1.082 0.18,0.211 0.54,0.481 0.721,0.812 0.12,0.27 0,0.721 -0.121,1.232 -0.27,0.451 -0.571,1.173 -0.902,1.834 -0.361,0.601 -0.932,1.383 -1.022,1.894 -0.18,0.421 -0.09,0.962 0.15,0.812 0.152,-0.331 0.783,-1.473 1.203,-2.165 0.331,-0.721 0.751,-1.292 1.022,-1.834 0.21,-0.721 0.421,-1.262 0.391,-1.743 -0.181,-0.451 -0.631,-0.511 -0.872,-0.752 -0.24,-0.3 -0.54,-0.541 -0.571,-0.841 -0.121,-0.331 -0.121,-0.481 0.12,-0.902 0.211,-0.541 0.962,-1.353 1.203,-1.864 0.06,-0.511 0,-0.872 -0.181,-1.203 -0.27,-0.421 -0.511,-0.932 -0.721,-1.172 -0.301,-0.301 -0.481,-0.541 -0.541,-0.722 -0.151,-0.33 -0.181,-0.691 -0.09,-0.962 -0.03,-0.3 0.121,-0.541 0.211,-0.721 -0.117,-0.025 -0.234,0.008 -0.359,0.033 z"
   fill="#c0c0c0"
   fill-rule="evenodd"
   opacity="1"
   stroke="#000000"
   stroke-linecap="butt"
   stroke-linejoin="miter"
   stroke-width="0.036"
   vectornator:layerName="path"
   id="path274" />




</g></svg>
