<?xml version="1.0" encoding="UTF-8" standalone="no"?>
<!-- Created with Inkscape (http://www.inkscape.org/) -->

<svg
   width="14.487253mm"
   height="66.622795mm"
   viewBox="0 0 14.487253 66.622794"
   version="1.1"
   id="svg1"
   xml:space="preserve"
   xmlns="http://www.w3.org/2000/svg"
   xmlns:svg="http://www.w3.org/2000/svg"
   xmlns:vectornator="http://vectornator.io"><defs
     id="defs1" /><g
     opacity="1"
     vectornator:layerName="im wind"
     id="g278"
     style="clip-rule:evenodd;display:inline;fill-rule:nonzero;stroke-linecap:round;stroke-linejoin:round"
     transform="matrix(1.9050924,0,0,1.9050924,-789.4313,-366.32095)">







<path
   d="m 417.192,192.633 c -0.872,1.503 -1.112,3.037 -0.842,4.84 0.271,1.744 2.525,3.608 2.586,5.712 -0.151,2.014 -2.556,4.209 -2.586,6.343 -0.03,1.985 3.067,3.277 2.796,5.833 -0.361,2.465 -3.998,7.485 -4.539,9.379 -0.542,1.804 0,3.487 1.292,1.804 1.233,-1.774 5.532,-9.109 6.043,-11.935 0.361,-2.886 -3.458,-3.187 -3.458,-5.081 0,-1.984 3.277,-4.329 3.337,-6.553 -0.151,-2.285 -3.067,-5.171 -3.548,-6.915 -0.451,-1.773 -0.089,-3.066 0.962,-3.757 -0.668,0.083 -1.353,0.2 -2.046,0.325 z"
   fill="#000000"
   fill-rule="evenodd"
   opacity="1"
   stroke="#000000"
   stroke-linecap="butt"
   stroke-linejoin="miter"
   stroke-width="0.036"
   vectornator:layerName="path"
   id="path275" />
<path
   d="m 417.309,193.26 c -0.511,1.413 -0.692,2.675 -0.541,3.787 0.15,1.083 0.811,2.015 1.292,2.796 0.421,0.722 0.783,0.902 1.083,1.714 0.21,0.661 0.21,1.683 0,2.705 -0.361,0.962 -1.473,2.466 -1.833,3.337 -0.451,0.812 -0.602,0.992 -0.451,1.714 0.059,0.631 0.69,1.653 1.201,2.375 0.481,0.631 1.293,1.082 1.624,1.834 0.21,0.781 0.089,1.563 -0.241,2.795 -0.481,1.173 -1.323,2.616 -2.044,4.089 -0.722,1.383 -2.014,3.096 -2.255,4.209 -0.36,0.992 -0.21,2.254 0.331,1.834 0.481,-0.602 1.804,-3.337 2.676,-4.841 0.841,-1.533 1.683,-2.795 2.283,-4.118 0.481,-1.413 0.993,-2.976 0.843,-3.878 -0.24,-0.992 -1.383,-1.173 -1.925,-1.714 -0.631,-0.631 -1.142,-1.202 -1.292,-1.834 -0.211,-0.691 -0.211,-1.022 0.33,-2.044 0.421,-1.112 2.314,-3.096 2.676,-4.208 0.33,-1.173 -0.121,-1.834 -0.422,-2.676 -0.48,-0.962 -1.141,-1.864 -1.622,-2.585 -0.512,-0.692 -1.023,-1.113 -1.173,-1.624 -0.27,-0.691 -0.301,-1.563 -0.21,-2.164 0,-0.692 0.18,-1.113 0.421,-1.594 -0.243,0.017 -0.476,0.051 -0.752,0.076 z"
   fill="#c0c0c0"
   fill-rule="evenodd"
   opacity="1"
   stroke="#000000"
   stroke-linecap="butt"
   stroke-linejoin="miter"
   stroke-width="0.036"
   vectornator:layerName="path"
   id="path276"
   style="display:inline" />


</g></svg>
