<?xml version="1.0" encoding="UTF-8" standalone="no"?>
<!-- Created with Inkscape (http://www.inkscape.org/) -->

<svg
   width="75.13842mm"
   height="130.89085mm"
   viewBox="0 0 75.13842 130.89085"
   version="1.1"
   id="svg1"
   xml:space="preserve"
   xmlns="http://www.w3.org/2000/svg"
   xmlns:svg="http://www.w3.org/2000/svg"
   xmlns:vectornator="http://vectornator.io"><defs
     id="defs1" /><g
     opacity="0"
     vectornator:layerName="sb am wind"
     id="g167"
     style="clip-rule:evenodd;display:inline;opacity:1;fill-rule:nonzero;stroke-linecap:round;stroke-linejoin:round"
     transform="matrix(1.9136218,0,0,1.9136218,-666.2139,-347.29935)">
<path
   d="m 353.809,181.511 c -3.108,7.703 -4.237,15.075 -3.232,22.834 0.956,7.662 4.831,15.233 9.035,22.844 4.152,7.544 9.403,14.771 15.818,22.142 l 11.959,-5.057 c -0.764,-9.698 -2.366,-18.501 -4.885,-26.751 -2.53,-8.403 -5.328,-16.354 -10.087,-22.429 -4.869,-6.117 -10.932,-10.481 -18.6,-13.58 z"
   fill="#000000"
   fill-rule="evenodd"
   opacity="1"
   stroke="#000000"
   stroke-linecap="butt"
   stroke-linejoin="miter"
   stroke-width="0.036"
   vectornator:layerName="path"
   id="path158" />
<path
   d="m 354.703,183.592 c -3.113,6.52 -4.145,13.359 -3.11,20.637 1,7.304 4.928,15.426 9.035,22.844 4.058,7.32 8.907,14.133 14.952,20.822 l 10.777,-4.567 c -0.681,-8.901 -2.167,-17.174 -4.656,-25.178 -2.541,-8.071 -5.612,-16.753 -10.135,-22.526 -4.521,-5.804 -10.145,-9.777 -16.858,-12.033 z"
   fill="#16a4e9"
   fill-rule="evenodd"
   opacity="1"
   stroke="#000000"
   stroke-linecap="butt"
   stroke-linejoin="miter"
   stroke-width="0.036"
   vectornator:layerName="path"
   id="path159" />
<path
   d="m 359.636,195.287 -5.468,2.32 c 0.073,4.038 0.856,8.467 2.545,13.645 1.539,5.16 3.814,10.986 7.342,16.969 3.606,5.84 8.219,11.867 14.077,18.108 l 5.212,-2.2 c -0.352,-7.647 -1.319,-14.25 -2.695,-20.48 -1.414,-6.174 -3.319,-11.318 -5.84,-16.388 -2.569,-5.166 -5.771,-9.866 -9.577,-14.338 l -5.587,2.36 z"
   fill="#000000"
   fill-rule="evenodd"
   opacity="1"
   stroke="#000000"
   stroke-linecap="butt"
   stroke-linejoin="miter"
   stroke-width="0.036"
   vectornator:layerName="path"
   id="path160" />
<path
   d="m 359.914,195.961 -5.017,2.103 c 0.145,4.683 1.058,9.523 2.773,14.735 1.715,5.211 3.941,10.698 7.431,16.252 3.487,5.583 10.309,14.308 13.298,16.83 l 4.373,-1.304 0.07,-0.567 c 0.243,-3.908 -1.244,-14.847 -2.811,-21.252 -1.571,-6.375 -3.953,-11.822 -6.5,-16.682 -2.546,-4.861 -5.349,-8.875 -8.625,-12.251 l -4.985,2.124 z"
   fill="#ffffff"
   fill-rule="evenodd"
   opacity="1"
   stroke="#000000"
   stroke-linecap="butt"
   stroke-linejoin="miter"
   stroke-width="0.036"
   vectornator:layerName="path"
   id="path161" />
<path
   d="m 349.176,206.593 c -0.762,-3.124 -1.1,-5.772 -0.997,-8.061 0.081,-2.353 0.542,-4.113 1.32,-5.743 0.67,-1.735 2.041,-3.261 3.04,-4.47 0.905,-1.19 1.825,-2.257 2.72,-2.873 l 0.641,-0.041 -6.723,21.186 z"
   fill="#000000"
   fill-rule="evenodd"
   opacity="1"
   stroke="#000000"
   stroke-linecap="butt"
   stroke-linejoin="miter"
   stroke-width="0.036"
   vectornator:layerName="path"
   id="path162" />
<path
   d="m 349.172,205.136 c -0.482,-2.21 -0.681,-4.265 -0.597,-6.163 -10e-4,-1.939 0.43,-3.703 1.056,-5.322 0.67,-1.734 1.981,-3.51 2.923,-4.756 0.891,-1.313 1.77,-2.294 2.638,-2.944 l 0.209,0.269 -6.23,18.916 z"
   fill="#c0c0c0"
   fill-rule="evenodd"
   opacity="1"
   stroke="#000000"
   stroke-linecap="butt"
   stroke-linejoin="miter"
   stroke-width="0.036"
   vectornator:layerName="path"
   id="path163" />
<path
   d="m 364.569,244.825 c -3.262,-5.192 -5.577,-9.721 -6.904,-13.915 -1.434,-4.298 -1.418,-7.598 -1.193,-11.114 0.203,-3.58 1.613,-7.131 2.626,-9.913 0.896,-2.827 1.995,-5.084 3.071,-6.919 l 1.119,-0.467 1.276,42.334 z"
   fill="#000000"
   fill-rule="evenodd"
   opacity="1"
   stroke="#000000"
   stroke-linecap="butt"
   stroke-linejoin="miter"
   stroke-width="0.036"
   vectornator:layerName="path"
   id="path164" />
<path
   d="m 363.684,242.199 c -2.206,-3.697 -3.946,-7.246 -4.967,-10.736 -1.139,-3.504 -1.6,-6.863 -1.487,-10.212 0.11,-3.561 1.352,-7.466 2.29,-10.378 0.818,-2.928 1.797,-5.2 2.833,-6.949 l 0.563,0.343 0.771,37.937 z"
   fill="#c0c0c0"
   fill-rule="evenodd"
   opacity="1"
   stroke="#000000"
   stroke-linecap="butt"
   stroke-linejoin="miter"
   stroke-width="0.036"
   vectornator:layerName="path"
   id="path165" />
<path
   d="m 376.282,234.677 c -0.19,0.067 -0.066,0.779 0.262,1.547 1.73,4.123 3.459,8.246 5.218,12.372 0.329,0.768 0.743,1.335 0.933,1.268 0.194,-0.098 0.1,-0.806 -0.229,-1.574 -1.759,-4.126 -3.492,-8.219 -5.221,-12.342 -0.364,-0.794 -0.782,-1.36 -0.97,-1.265 z"
   fill="#000000"
   fill-rule="evenodd"
   opacity="1"
   stroke="#000000"
   stroke-linecap="butt"
   stroke-linejoin="miter"
   stroke-width="0.036"
   vectornator:layerName="path"
   id="path166" />
<path
   d="m 361.031,202.614 c 0.374,0.894 1.355,1.289 2.249,0.915 0.865,-0.377 1.26,-1.358 0.886,-2.253 -0.347,-0.861 -1.358,-1.259 -2.223,-0.882 -0.892,0.344 -1.296,1.354 -0.915,2.217 z"
   fill="#000000"
   fill-rule="evenodd"
   opacity="1"
   stroke="#000000"
   stroke-linecap="butt"
   stroke-linejoin="miter"
   stroke-width="0.036"
   vectornator:layerName="path"
   id="path167" />
</g></svg>
