<?xml version="1.0" encoding="UTF-8" standalone="no"?>
<!-- Created with Inkscape (http://www.inkscape.org/) -->

<svg
   width="159.29572mm"
   height="82.299484mm"
   viewBox="0 0 159.29572 82.299484"
   version="1.1"
   id="svg1"
   xml:space="preserve"
   xmlns="http://www.w3.org/2000/svg"
   xmlns:svg="http://www.w3.org/2000/svg"
   xmlns:vectornator="http://vectornator.io"><defs
     id="defs1" /><g
     opacity="1"
     vectornator:layerName="sb halber w"
     id="g187"
     style="clip-rule:evenodd;display:inline;fill-rule:nonzero;stroke-linecap:round;stroke-linejoin:round"
     transform="matrix(2.1452497,0,0,2.1452497,-539.92481,-685.75548)">
<path
   d="m 251.7,332.938 c 5.802,5.893 12.356,9.74 19.781,11.875 7.396,1.984 15.963,1.443 24.561,0.572 8.598,-0.931 17.286,-2.916 26.545,-5.954 v -12.986 c -9.259,-3.126 -17.947,-4.991 -26.545,-5.922 -8.598,-0.962 -17.165,-1.475 -24.561,0.571 -7.422,2.079 -13.975,5.988 -19.778,11.85 z"
   fill="#000000"
   fill-rule="evenodd"
   opacity="1"
   stroke="#000000"
   stroke-linecap="butt"
   stroke-linejoin="miter"
   stroke-width="0.036"
   vectornator:layerName="path"
   id="path178" />
<path
   d="m 253.985,332.938 c 4.81,5.38 10.612,8.898 17.767,10.882 7.095,1.745 16.173,1.504 24.561,0.573 8.297,-0.902 16.504,-2.706 24.982,-5.654 v -11.723 c -8.538,-2.946 -16.595,-4.631 -24.982,-5.502 -8.448,-0.902 -17.617,-1.293 -24.712,0.571 -7.096,1.988 -12.928,5.42 -17.618,10.856 z"
   fill="#16a4e9"
   fill-rule="evenodd"
   opacity="1"
   stroke="#000000"
   stroke-linecap="butt"
   stroke-linejoin="miter"
   stroke-width="0.036"
   vectornator:layerName="path"
   id="path179" />
<path
   d="m 266.671,332.938 v 5.953 c 3.698,1.473 8.177,2.494 13.558,2.945 5.321,0.451 11.635,0.842 18.489,-0.121 6.824,-1.112 14.099,-2.945 22.186,-5.951 v -5.622 c -7.155,-2.616 -13.678,-4.449 -19.931,-5.501 -6.284,-1.113 -11.635,-1.444 -17.347,-0.992 -5.802,0.329 -11.333,1.412 -16.955,3.246 v 6.045 z"
   fill="#000000"
   fill-rule="evenodd"
   opacity="1"
   stroke="#000000"
   stroke-linecap="butt"
   stroke-linejoin="miter"
   stroke-width="0.036"
   vectornator:layerName="path"
   id="path180" />
<path
   d="m 267.393,332.938 v 5.472 c 4.359,1.653 9.169,2.706 14.61,3.156 5.471,0.452 11.424,0.541 17.917,-0.51 6.494,-1.053 17.166,-3.939 20.653,-5.712 l 0.511,-4.541 c -0.18,-0.059 -0.33,-0.151 -0.511,-0.24 -3.487,-1.775 -14.159,-4.66 -20.653,-5.712 -6.493,-1.052 -12.446,-0.962 -17.917,-0.51 -5.441,0.45 -10.251,1.473 -14.61,3.156 v 5.444 z"
   fill="#ffffff"
   fill-rule="evenodd"
   opacity="1"
   stroke="#000000"
   stroke-linecap="butt"
   stroke-linejoin="miter"
   stroke-width="0.036"
   vectornator:layerName="path"
   id="path181" />
<path
   d="m 269.948,350.015 c -3.006,-1.141 -5.291,-2.524 -7.185,-3.816 -1.954,-1.323 -2.946,-2.887 -3.908,-4.36 -0.962,-1.714 -1.563,-3.518 -1.924,-5.051 -0.451,-1.534 -0.752,-2.796 -0.782,-3.909 l 0.331,-0.541 13.468,17.679 z"
   fill="#000000"
   fill-rule="evenodd"
   opacity="1"
   stroke="#000000"
   stroke-linecap="butt"
   stroke-linejoin="miter"
   stroke-width="0.036"
   vectornator:layerName="path"
   id="path182" />
<path
   d="m 268.776,349.172 c -2.105,-0.902 -3.908,-1.923 -5.412,-3.067 -1.593,-1.172 -2.735,-2.435 -3.757,-3.908 -1.023,-1.593 -1.714,-3.607 -2.195,-5.11 -0.541,-1.473 -0.842,-2.795 -0.902,-3.848 l 0.331,-0.03 11.935,15.958 z"
   fill="#c0c0c0"
   fill-rule="evenodd"
   opacity="1"
   stroke="#000000"
   stroke-linecap="butt"
   stroke-linejoin="miter"
   stroke-width="0.036"
   vectornator:layerName="path"
   id="path183" />
<path
   d="m 308.79,358.007 c -6.042,-0.721 -11.002,-1.804 -15.121,-3.366 -4.088,-1.594 -6.914,-3.729 -9.41,-6.043 -2.585,-2.464 -4.569,-5.801 -6.072,-8.267 -1.624,-2.495 -2.736,-4.779 -3.457,-6.733 l 0.33,-1.173 33.734,25.578 z"
   fill="#000000"
   fill-rule="evenodd"
   opacity="1"
   stroke="#000000"
   stroke-linecap="butt"
   stroke-linejoin="miter"
   stroke-width="0.036"
   vectornator:layerName="path"
   id="path184" />
<path
   d="m 306.202,357.08 c -4.329,-0.571 -8.027,-1.533 -11.454,-2.887 -3.397,-1.473 -6.403,-3.006 -8.899,-5.291 -2.615,-2.314 -4.93,-5.801 -6.613,-8.266 -1.684,-2.495 -2.976,-4.69 -3.638,-6.584 l 0.601,-0.24 30.009,23.274 z"
   fill="#c0c0c0"
   fill-rule="evenodd"
   opacity="1"
   stroke="#000000"
   stroke-linecap="butt"
   stroke-linejoin="miter"
   stroke-width="0.036"
   vectornator:layerName="path"
   id="path185" />
<path
   d="m 309.417,332.938 c 0,0.21 0.691,0.392 1.533,0.392 h 13.408 c 0.872,0 1.563,-0.182 1.563,-0.392 0,-0.21 -0.691,-0.361 -1.563,-0.361 H 310.95 c -0.844,0 -1.537,0.151 -1.537,0.359 z"
   fill="#000000"
   fill-rule="evenodd"
   opacity="1"
   stroke="#000000"
   stroke-linecap="butt"
   stroke-linejoin="miter"
   stroke-width="0.036"
   vectornator:layerName="path"
   id="path186" />
<path
   d="m 273.946,334.533 c 0.962,0 1.714,-0.782 1.714,-1.714 0,-0.961 -0.752,-1.713 -1.714,-1.713 -0.932,0 -1.683,0.751 -1.683,1.713 0,0.926 0.751,1.711 1.683,1.711 z"
   fill="#000000"
   fill-rule="evenodd"
   opacity="1"
   stroke="#000000"
   stroke-linecap="butt"
   stroke-linejoin="miter"
   stroke-width="0.036"
   vectornator:layerName="path"
   id="path187" />
</g></svg>
