<?xml version="1.0" encoding="UTF-8" standalone="no"?>
<!-- Created with Inkscape (http://www.inkscape.org/) -->

<svg
   width="78.727615mm"
   height="132.74597mm"
   viewBox="0 0 78.727615 132.74597"
   version="1.1"
   id="svg1"
   xml:space="preserve"
   xmlns="http://www.w3.org/2000/svg"
   xmlns:svg="http://www.w3.org/2000/svg"
   xmlns:vectornator="http://vectornator.io"><defs
     id="defs1" /><g
     opacity="0"
     vectornator:layerName="bb am w"
     id="g267"
     style="clip-rule:evenodd;display:inline;opacity:1;fill-rule:nonzero;stroke-linecap:round;stroke-linejoin:round"
     transform="matrix(1.9727186,0,0,1.9727186,-883.3334,-363.0464)">
<path
   d="m 483.648,184.052 c -7.811,2.821 -14.032,6.952 -19.099,12.883 -5.04,5.9 -8.131,13.742 -10.912,22.04 -2.793,8.149 -4.75,16.888 -5.843,26.549 l 11.763,5.497 c 6.684,-7.128 12.109,-14.147 16.598,-21.538 4.423,-7.445 8.577,-14.866 9.876,-22.493 1.275,-7.713 0.414,-15.124 -2.376,-22.937 z"
   fill="#000000"
   fill-rule="evenodd"
   opacity="1"
   stroke="#000000"
   stroke-linecap="butt"
   stroke-linejoin="miter"
   stroke-width="0.036"
   vectornator:layerName="path"
   id="path258" />
<path
   d="m 482.71,186.095 c -6.967,2.114 -12.616,5.863 -17.376,11.527 -4.764,5.603 -8.195,14.049 -10.914,22.01 -2.784,7.906 -4.578,16.088 -5.461,25.036 l 10.63,4.962 c 6.201,-6.423 11.202,-13.133 15.558,-20.301 4.257,-7.279 8.564,-15.378 9.924,-22.648 1.295,-7.296 0.408,-14.033 -2.365,-20.582 z"
   fill="#16a4e9"
   fill-rule="evenodd"
   opacity="1"
   stroke="#000000"
   stroke-linecap="butt"
   stroke-linejoin="miter"
   stroke-width="0.036"
   vectornator:layerName="path"
   id="path259" />
<path
   d="m 477.347,197.6 -5.376,-2.491 c -2.997,2.675 -5.722,6.381 -8.427,11.022 -2.708,4.61 -5.782,10.218 -7.714,16.813 -2.017,6.663 -3.255,13.952 -3.984,22.585 l 5.096,2.394 c 5.356,-5.383 9.8,-10.506 13.422,-15.709 3.627,-5.143 6.037,-10.06 8.236,-15.32 2.034,-5.427 3.49,-10.895 4.222,-16.722 l -5.471,-2.576 z"
   fill="#000000"
   fill-rule="evenodd"
   opacity="1"
   stroke="#000000"
   stroke-linecap="butt"
   stroke-linejoin="miter"
   stroke-width="0.036"
   vectornator:layerName="path"
   id="path260" />
<path
   d="m 477.036,198.264 -4.939,-2.317 c -3.368,3.249 -6.348,7.159 -9.074,11.922 -2.725,4.763 -5.308,10.117 -7.113,16.429 -1.773,6.34 -3.695,17.219 -3.567,21.131 l 3.888,2.378 c 0.142,-0.102 0.314,-0.208 0.453,-0.341 3.08,-2.409 10.22,-10.875 13.912,-16.325 3.694,-5.42 6.152,-10.824 8.059,-15.968 1.908,-5.145 2.969,-9.945 3.318,-14.622 l -4.942,-2.27 z"
   fill="#ffffff"
   fill-rule="evenodd"
   opacity="1"
   stroke="#000000"
   stroke-linecap="butt"
   stroke-linejoin="miter"
   stroke-width="0.036"
   vectornator:layerName="path"
   id="path261" />
<path
   d="m 470.084,247.089 c 3.553,-4.955 6.094,-9.4 7.733,-13.465 1.598,-4.182 1.829,-7.431 1.882,-10.997 -0.067,-3.554 -1.264,-7.253 -1.992,-10.086 -0.766,-2.921 -1.688,-5.195 -2.665,-7.071 l -1.074,-0.541 -3.876,42.155 z"
   fill="#000000"
   fill-rule="evenodd"
   opacity="1"
   stroke="#000000"
   stroke-linecap="butt"
   stroke-linejoin="miter"
   stroke-width="0.036"
   vectornator:layerName="path"
   id="path262" />
<path
   d="m 471.127,244.526 c 2.433,-3.591 4.314,-6.953 5.613,-10.415 1.271,-3.429 1.982,-6.72 2.11,-10.111 0.022,-3.562 -0.985,-7.518 -1.634,-10.48 -0.709,-2.956 -1.519,-5.329 -2.429,-7.121 l -0.578,0.291 -3.087,37.828 z"
   fill="#c0c0c0"
   fill-rule="evenodd"
   opacity="1"
   stroke="#000000"
   stroke-linecap="butt"
   stroke-linejoin="miter"
   stroke-width="0.036"
   vectornator:layerName="path"
   id="path263" />
<path
   d="m 486.217,210.174 c 0.848,-3.091 1.373,-5.732 1.445,-8.031 0.042,-2.297 -0.385,-4.101 -0.982,-5.769 -0.641,-1.815 -1.949,-3.331 -2.788,-4.646 -0.929,-1.308 -1.741,-2.324 -2.557,-3.037 l -0.639,-0.066 5.524,21.541 z"
   fill="#000000"
   fill-rule="evenodd"
   opacity="1"
   stroke="#000000"
   stroke-linecap="butt"
   stroke-linejoin="miter"
   stroke-width="0.036"
   vectornator:layerName="path"
   id="path264" />
<path
   d="m 486.308,208.716 c 0.535,-2.189 0.84,-4.237 0.916,-6.145 -0.016,-1.929 -0.263,-3.718 -0.737,-5.367 -0.546,-1.763 -1.907,-3.546 -2.659,-4.899 -0.868,-1.313 -1.685,-2.389 -2.442,-3.108 l -0.219,0.261 5.134,19.261 z"
   fill="#c0c0c0"
   fill-rule="evenodd"
   opacity="1"
   stroke="#000000"
   stroke-linecap="butt"
   stroke-linejoin="miter"
   stroke-width="0.036"
   vectornator:layerName="path"
   id="path265" />
<path
   d="m 459.253,236.353 c -0.19,-0.104 -0.655,0.45 -1.01,1.235 -1.881,4.056 -3.764,8.082 -5.675,12.14 -0.354,0.785 -0.474,1.49 -0.317,1.567 0.22,0.101 0.653,-0.48 1.01,-1.235 1.911,-4.058 3.794,-8.084 5.675,-12.14 0.35,-0.793 0.507,-1.503 0.316,-1.57 z"
   fill="#000000"
   fill-rule="evenodd"
   opacity="1"
   stroke="#000000"
   stroke-linecap="butt"
   stroke-linejoin="miter"
   stroke-width="0.036"
   vectornator:layerName="path"
   id="path266" />
<path
   d="m 472.413,205.067 c -0.409,0.851 -0.019,1.873 0.832,2.282 0.85,0.409 1.872,0.018 2.281,-0.832 0.409,-0.85 0.02,-1.873 -0.832,-2.281 -0.846,-0.38 -1.87,-0.014 -2.282,0.835 z"
   fill="#000000"
   fill-rule="evenodd"
   opacity="1"
   stroke="#000000"
   stroke-linecap="butt"
   stroke-linejoin="miter"
   stroke-width="0.036"
   vectornator:layerName="path"
   id="path267" />
</g></svg>
