<?xml version="1.0" encoding="UTF-8" standalone="no"?>
<!-- Created with Inkscape (http://www.inkscape.org/) -->

<svg
   width="147.94775mm"
   height="126.94142mm"
   viewBox="0 0 147.94775 126.94142"
   version="1.1"
   id="svg1"
   xml:space="preserve"
   xmlns="http://www.w3.org/2000/svg"
   xmlns:svg="http://www.w3.org/2000/svg"
   xmlns:vectornator="http://vectornator.io"><defs
     id="defs1" /><g
     opacity="1"
     vectornator:layerName="bb achterlicher w"
     id="g237"
     style="clip-rule:evenodd;display:inline;fill-rule:nonzero;stroke-linecap:round;stroke-linejoin:round"
     transform="matrix(2.3800243,0,0,2.3800243,-1164.3289,-902.06523)">
<path
   d="m 551.351,424.482 c -1.486,-8.14 -4.683,-15.09 -9.596,-20.97 -5.034,-5.936 -12.37,-10.278 -19.94,-14.341 -7.6,-4.092 -15.903,-7.473 -25.238,-10.135 l -7.346,10.727 c 5.835,7.749 11.967,14.228 18.528,19.883 6.557,5.535 13.167,10.826 20.576,13.421 7.312,2.507 14.874,2.876 23.012,1.417 z"
   fill="#000000"
   fill-rule="evenodd"
   opacity="1"
   stroke="#000000"
   stroke-linecap="butt"
   stroke-linejoin="miter"
   stroke-width="0.036"
   vectornator:layerName="path"
   id="path228" />
<path
   d="m 549.487,423.213 c -0.979,-7.192 -3.735,-13.43 -8.52,-19.044 -4.847,-5.702 -12.613,-10.33 -19.94,-14.341 -7.387,-4.007 -15.202,-7.132 -23.807,-9.483 L 490.598,390 c 5.308,7.162 11.098,13.228 17.503,18.678 6.402,5.388 13.712,10.962 20.699,13.508 6.917,2.459 13.69,2.691 20.687,1.029 z"
   fill="#16a4e9"
   fill-rule="evenodd"
   opacity="1"
   stroke="#000000"
   stroke-linecap="butt"
   stroke-linejoin="miter"
   stroke-width="0.036"
   vectornator:layerName="path"
   id="path229" />
<path
   d="m 538.998,416.007 3.355,-4.873 c -2.229,-3.428 -5.354,-6.651 -9.509,-10.115 -4.184,-3.435 -9.195,-7.388 -15.32,-10.348 -6.219,-3.048 -13.325,-5.56 -21.652,-7.647 l -3.181,4.657 c 4.408,6.105 8.732,11.37 13.304,15.786 4.511,4.387 8.78,7.639 13.765,10.661 4.892,2.934 10.155,5.195 15.797,6.905 l 3.438,-5.023 z"
   fill="#000000"
   fill-rule="evenodd"
   opacity="1"
   stroke="#000000"
   stroke-linecap="butt"
   stroke-linejoin="miter"
   stroke-width="0.036"
   vectornator:layerName="path"
   id="path230" />
<path
   d="m 538.654,415.622 3.096,-4.475 c -2.692,-3.865 -6.23,-7.29 -10.475,-10.753 -4.275,-3.463 -8.928,-7.031 -14.869,-9.847 -5.941,-2.784 -16.386,-6.438 -20.28,-6.963 l -2.638,3.794 c -0.111,0.13 -0.132,0.141 -0.067,0.319 1.897,3.436 9.062,11.683 13.818,16.243 4.755,4.502 9.717,7.794 14.483,10.521 4.766,2.726 9.296,4.557 13.868,5.665 l 3.06,-4.503 z"
   fill="#ffffff"
   fill-rule="evenodd"
   opacity="1"
   stroke="#000000"
   stroke-linecap="butt"
   stroke-linejoin="miter"
   stroke-width="0.036"
   vectornator:layerName="path"
   id="path231" />
<path
   d="m 503.753,391.859 c 0.116,-0.184 -0.381,-0.712 -1.086,-1.204 -3.678,-2.516 -7.355,-5.031 -11.034,-7.577 -0.705,-0.493 -1.373,-0.715 -1.489,-0.562 -0.116,0.185 0.351,0.711 1.056,1.205 3.677,2.515 7.355,5.032 11.064,7.577 0.706,0.465 1.372,0.714 1.485,0.561 z"
   fill="#000000"
   fill-rule="evenodd"
   opacity="1"
   stroke="#000000"
   stroke-linecap="butt"
   stroke-linejoin="miter"
   stroke-width="0.036"
   vectornator:layerName="path"
   id="path232" />
<path
   d="m 493.195,427.936 c 6.039,0.916 11.1,1.23 15.51,0.808 4.318,-0.479 7.441,-1.738 10.646,-3.328 3.141,-1.711 5.775,-4.369 8.066,-6.356 2.14,-2.013 3.924,-3.837 5.11,-5.585 l -0.003,-1.232 -39.327,15.695 z"
   fill="#000000"
   fill-rule="evenodd"
   opacity="1"
   stroke="#000000"
   stroke-linecap="butt"
   stroke-linejoin="miter"
   stroke-width="0.036"
   vectornator:layerName="path"
   id="path233" />
<path
   d="m 495.955,427.743 c 4.194,0.517 8.168,0.679 11.795,0.249 3.625,-0.489 6.793,-1.238 9.97,-2.709 3.055,-1.557 6.259,-4.261 8.612,-6.22 2.261,-1.956 4.048,-3.749 5.235,-5.376 l -0.52,-0.378 -35.084,14.435 z"
   fill="#c0c0c0"
   fill-rule="evenodd"
   opacity="1"
   stroke="#000000"
   stroke-linecap="butt"
   stroke-linejoin="miter"
   stroke-width="0.036"
   vectornator:layerName="path"
   id="path234" />
<path
   d="m 527.866,432.309 c 3.124,-0.115 5.852,-0.46 8.062,-1.032 2.177,-0.693 3.687,-1.545 5.219,-2.7 1.502,-1.185 2.539,-2.837 3.589,-4.039 0.959,-1.228 1.619,-2.389 2.103,-3.364 l -0.107,-0.629 -18.867,11.769 z"
   fill="#000000"
   fill-rule="evenodd"
   opacity="1"
   stroke="#000000"
   stroke-linecap="butt"
   stroke-linejoin="miter"
   stroke-width="0.036"
   vectornator:layerName="path"
   id="path235" />
<path
   d="m 529.276,431.944 c 2.194,-0.06 4.229,-0.415 6.109,-0.949 1.849,-0.561 3.333,-1.293 4.898,-2.328 1.502,-1.185 2.752,-2.753 3.89,-4.016 1.02,-1.201 1.711,-2.333 2.195,-3.28 l -0.303,-0.142 -16.782,10.718 z"
   fill="#c0c0c0"
   fill-rule="evenodd"
   opacity="1"
   stroke="#000000"
   stroke-linecap="butt"
   stroke-linejoin="miter"
   stroke-width="0.036"
   vectornator:layerName="path"
   id="path236" />
<path
   d="m 533.888,410.616 c -0.797,-0.549 -1.843,-0.341 -2.394,0.427 -0.519,0.796 -0.34,1.843 0.457,2.394 0.766,0.518 1.843,0.339 2.364,-0.457 0.547,-0.767 0.334,-1.838 -0.432,-2.36 z"
   fill="#000000"
   fill-rule="evenodd"
   opacity="1"
   stroke="#000000"
   stroke-linecap="butt"
   stroke-linejoin="miter"
   stroke-width="0.036"
   vectornator:layerName="path"
   id="path237" />
</g></svg>
