<?xml version="1.0" encoding="UTF-8" standalone="no"?>
<!-- Created with Inkscape (http://www.inkscape.org/) -->

<svg
   width="153.79903mm"
   height="123.90088mm"
   viewBox="0 0 153.79903 123.90088"
   version="1.1"
   id="svg1"
   xml:space="preserve"
   xmlns="http://www.w3.org/2000/svg"
   xmlns:svg="http://www.w3.org/2000/svg"
   xmlns:vectornator="http://vectornator.io"><defs
     id="defs1" /><g
     opacity="1"
     vectornator:layerName="sb leicht am w"
     id="g177"
     style="clip-rule:evenodd;display:inline;fill-rule:nonzero;stroke-linecap:round;stroke-linejoin:round"
     transform="matrix(2.4649738,0,0,2.4649738,-693.36617,-589.6324)">
<path
   d="m 281.313,240.182 c 1.506,8.123 4.764,14.923 9.738,20.879 5.043,5.841 12.336,10.122 20.033,14.221 7.64,4.066 15.848,7.326 25.307,9.952 l 7.268,-10.759 c -5.996,-7.716 -12.074,-14.263 -18.676,-19.791 -6.657,-5.593 -13.338,-10.856 -20.672,-13.272 -7.301,-2.473 -14.93,-2.802 -23,-1.236 z"
   fill="#000000"
   fill-rule="evenodd"
   opacity="1"
   stroke="#000000"
   stroke-linecap="butt"
   stroke-linejoin="miter"
   stroke-width="0.036"
   vectornator:layerName="path"
   id="path168" />
<path
   d="m 283.181,241.461 c 1.003,7.153 3.851,13.351 8.639,18.963 4.794,5.521 12.603,10.171 20.035,14.191 7.375,3.955 15.177,7.007 23.875,9.308 l 6.56,-9.694 c -5.374,-7.129 -11.214,-13.207 -17.616,-18.571 -6.429,-5.426 -13.905,-10.956 -20.789,-13.34 -7.035,-2.329 -13.696,-2.715 -20.699,-0.857 z"
   fill="#16a4e9"
   fill-rule="evenodd"
   opacity="1"
   stroke="#000000"
   stroke-linecap="butt"
   stroke-linejoin="miter"
   stroke-width="0.036"
   vectornator:layerName="path"
   id="path169" />
<path
   d="m 293.712,248.566 -3.33,4.919 c 2.179,3.287 5.412,6.589 9.57,10.017 4.135,3.335 9.193,7.248 15.401,10.248 6.242,2.941 13.329,5.43 21.712,7.497 l 3.134,-4.691 c -4.422,-6.099 -8.846,-11.323 -13.39,-15.682 -4.509,-4.446 -8.982,-7.685 -13.842,-10.559 -5.04,-2.887 -10.213,-5.181 -15.856,-6.784 l -3.41,5.033 z"
   fill="#000000"
   fill-rule="evenodd"
   opacity="1"
   stroke="#000000"
   stroke-linecap="butt"
   stroke-linejoin="miter"
   stroke-width="0.036"
   vectornator:layerName="path"
   id="path170" />
<path
   d="m 294.287,248.966 -3.029,4.488 c 2.681,3.866 6.049,7.388 10.327,10.824 4.308,3.438 9.163,6.825 15.115,9.595 5.983,2.773 16.43,6.341 20.344,6.828 l 2.926,-3.469 c -0.079,-0.156 -0.158,-0.313 -0.236,-0.499 -1.928,-3.421 -9.143,-11.796 -13.949,-16.293 -4.807,-4.498 -9.761,-7.741 -14.545,-10.429 -4.783,-2.688 -9.325,-4.515 -13.892,-5.56 l -3.065,4.514 z"
   fill="#ffffff"
   fill-rule="evenodd"
   opacity="1"
   stroke="#000000"
   stroke-linecap="butt"
   stroke-linejoin="miter"
   stroke-width="0.036"
   vectornator:layerName="path"
   id="path171" />
<path
   d="m 287.466,264.492 c -1.924,-2.637 -3.147,-4.954 -4.02,-7.095 -0.876,-2.111 -1.013,-4.019 -0.98,-5.765 0.043,-1.895 0.572,-3.847 1.068,-5.319 0.38,-1.54 0.889,-2.77 1.406,-3.698 l 0.563,-0.292 1.961,22.172 z"
   fill="#000000"
   fill-rule="evenodd"
   opacity="1"
   stroke="#000000"
   stroke-linecap="butt"
   stroke-linejoin="miter"
   stroke-width="0.036"
   vectornator:layerName="path"
   id="path172" />
<path
   d="m 286.926,263.123 c -1.344,-1.873 -2.241,-3.685 -2.931,-5.451 -0.744,-1.831 -1.072,-3.602 -1.101,-5.322 -0.019,-1.869 0.463,-4.005 0.901,-5.511 0.322,-1.575 0.739,-2.781 1.258,-3.739 l 0.319,0.173 1.548,19.841 z"
   fill="#c0c0c0"
   fill-rule="evenodd"
   opacity="1"
   stroke="#000000"
   stroke-linecap="butt"
   stroke-linejoin="miter"
   stroke-width="0.036"
   vectornator:layerName="path"
   id="path173" />
<path
   d="m 321.687,289.441 c -5.302,-3.026 -9.462,-6.001 -12.592,-9.055 -3.158,-3.085 -4.874,-6.1 -6.28,-9.243 -1.425,-3.295 -1.942,-7.069 -2.339,-9.99 -0.515,-2.96 -0.641,-5.44 -0.491,-7.569 l 0.758,-0.911 20.939,36.771 z"
   fill="#000000"
   fill-rule="evenodd"
   opacity="1"
   stroke="#000000"
   stroke-linecap="butt"
   stroke-linejoin="miter"
   stroke-width="0.036"
   vectornator:layerName="path"
   id="path174" />
<path
   d="m 319.685,287.558 c -3.765,-2.164 -6.79,-4.576 -9.411,-7.143 -2.618,-2.625 -4.66,-5.3 -6.102,-8.355 -1.465,-3.148 -2.322,-7.246 -2.836,-10.206 -0.603,-2.996 -0.851,-5.455 -0.737,-7.496 l 0.629,0.045 18.449,33.154 z"
   fill="#c0c0c0"
   fill-rule="evenodd"
   opacity="1"
   stroke="#000000"
   stroke-linecap="butt"
   stroke-linejoin="miter"
   stroke-width="0.036"
   vectornator:layerName="path"
   id="path175" />
<path
   d="m 329.121,272.46 c -0.103,0.174 0.371,0.72 1.061,1.19 3.712,2.492 7.422,5.014 11.134,7.507 0.69,0.47 1.365,0.729 1.468,0.554 0.132,-0.17 -0.341,-0.717 -1.062,-1.19 -3.682,-2.489 -7.393,-4.981 -11.103,-7.503 -0.678,-0.475 -1.355,-0.732 -1.493,-0.557 z"
   fill="#000000"
   fill-rule="evenodd"
   opacity="1"
   stroke="#000000"
   stroke-linecap="butt"
   stroke-linejoin="miter"
   stroke-width="0.036"
   vectornator:layerName="path"
   id="path176" />
<path
   d="m 298.851,253.926 c 0.806,0.539 1.874,0.343 2.383,-0.465 0.537,-0.776 0.341,-1.844 -0.464,-2.383 -0.778,-0.507 -1.847,-0.311 -2.354,0.467 -0.542,0.807 -0.348,1.85 0.435,2.383 z"
   fill="#000000"
   fill-rule="evenodd"
   opacity="1"
   stroke="#000000"
   stroke-linecap="butt"
   stroke-linejoin="miter"
   stroke-width="0.036"
   vectornator:layerName="path"
   id="path177" />
</g></svg>
