<?xml version="1.0" encoding="UTF-8" standalone="no"?>
<!-- Created with Inkscape (http://www.inkscape.org/) -->

<svg
   width="124.91455mm"
   height="50.659901mm"
   viewBox="0 0 124.91455 50.659901"
   version="1.1"
   id="svg1"
   xml:space="preserve"
   sodipodi:docname="segelboot-halberwind-bb.svg"
   inkscape:version="1.4 (e7c3feb100, 2024-10-09)"
   xmlns:inkscape="http://www.inkscape.org/namespaces/inkscape"
   xmlns:sodipodi="http://sodipodi.sourceforge.net/DTD/sodipodi-0.dtd"
   xmlns="http://www.w3.org/2000/svg"
   xmlns:svg="http://www.w3.org/2000/svg"
   xmlns:vectornator="http://vectornator.io"><sodipodi:namedview
     id="namedview1"
     pagecolor="#ffffff"
     bordercolor="#000000"
     borderopacity="0.25"
     inkscape:showpageshadow="2"
     inkscape:pageopacity="0.0"
     inkscape:pagecheckerboard="0"
     inkscape:deskcolor="#d1d1d1"
     inkscape:document-units="mm"
     inkscape:zoom="3.0239647"
     inkscape:cx="43.651304"
     inkscape:cy="155.75579"
     inkscape:window-width="3440"
     inkscape:window-height="1367"
     inkscape:window-x="0"
     inkscape:window-y="0"
     inkscape:window-maximized="1"
     inkscape:current-layer="g248" /><defs
     id="defs1" /><g
     opacity="1"
     vectornator:layerName="bb halber w"
     id="g248"
     style="clip-rule:evenodd;display:inline;fill-rule:nonzero;stroke-linecap:round;stroke-linejoin:round"
     transform="matrix(1.6827511,0,0,1.6827511,-849.75228,-540.10999)">
<g
   opacity="1"
   vectornator:layerName="rumpf"
   id="g242"
   inkscape:label="Boot"
   inkscape:export-filename="segelboot.svg"
   inkscape:export-xdpi="96"
   inkscape:export-ydpi="96">
<path
   d="m 579.186,334.244 c -5.892,-5.862 -12.325,-9.77 -19.751,-11.845 -7.485,-2.043 -16.023,-1.533 -24.56,-0.571 -8.628,0.931 -17.316,2.796 -26.545,5.922 v 12.988 c 9.229,3.036 17.917,5.021 26.545,5.952 8.538,0.872 17.075,1.412 24.56,-0.571 7.424,-2.138 13.863,-5.988 19.75,-11.883 z"
   fill="#000000"
   fill-rule="evenodd"
   opacity="1"
   stroke="#000000"
   stroke-linecap="butt"
   stroke-linejoin="miter"
   stroke-width="0.036"
   vectornator:layerName="path"
   id="path238" />
<path
   d="m 576.932,334.244 c -4.87,-5.441 -10.642,-8.868 -17.766,-10.853 -7.155,-1.833 -16.265,-1.562 -24.561,-0.571 -8.358,0.873 -16.505,2.677 -25.012,5.652 v 11.725 c 8.447,2.885 16.624,4.6 25.012,5.502 8.297,0.841 17.525,1.233 24.681,-0.572 7.09,-1.987 12.86,-5.503 17.637,-10.889 z"
   fill="#16a4e9"
   fill-rule="evenodd"
   opacity="1"
   stroke="#000000"
   stroke-linecap="butt"
   stroke-linejoin="miter"
   stroke-width="0.036"
   vectornator:layerName="path"
   id="path239" />
<path
   d="m 564.247,334.244 v -5.922 c -3.728,-1.563 -8.207,-2.557 -13.558,-2.977 -5.41,-0.539 -11.724,-0.871 -18.489,0.152 -6.884,1.053 -14.129,2.915 -22.186,5.952 v 5.622 c 7.065,2.585 13.619,4.418 19.902,5.501 6.193,1.023 11.604,1.352 17.376,0.992 5.772,-0.39 11.273,-1.473 16.956,-3.247 v -6.08 z"
   fill="#000000"
   fill-rule="evenodd"
   opacity="1"
   stroke="#000000"
   stroke-linecap="butt"
   stroke-linejoin="miter"
   stroke-width="0.036"
   vectornator:layerName="path"
   id="path240" />
<path
   d="m 563.529,334.244 v -5.441 c -4.389,-1.684 -9.169,-2.706 -14.64,-3.156 -5.472,-0.452 -11.394,-0.541 -17.888,0.51 -6.493,1.051 -17.165,3.939 -20.683,5.712 l -0.0582,4.8699 c 0.151,0.061 -0.15029,-0.13115 -2.9e-4,-0.0401 3.518,1.773 14.24749,4.61025 20.74149,5.66325 6.494,1.023 12.416,0.962 17.888,0.51 5.471,-0.45 10.251,-1.502 14.64,-3.156 v -5.47 z"
   fill="#ffffff"
   fill-rule="evenodd"
   opacity="1"
   stroke="#000000"
   stroke-linecap="butt"
   stroke-linejoin="miter"
   stroke-width="0.036"
   vectornator:layerName="path"
   id="path241"
   sodipodi:nodetypes="cccccccccccc" />
<path
   d="m 521.5,334.277 c 0,-0.21 -0.691,-0.391 -1.563,-0.391 h -13.408 c -0.842,0 -1.533,0.181 -1.533,0.391 0,0.211 0.691,0.361 1.533,0.361 h 13.408 c 0.868,0 1.561,-0.15 1.561,-0.359 z"
   fill="#000000"
   fill-rule="evenodd"
   opacity="1"
   stroke="#000000"
   stroke-linecap="butt"
   stroke-linejoin="miter"
   stroke-width="0.036"
   vectornator:layerName="path"
   id="path242"
   inkscape:label="Pinne" />
<path
   d="m 556.94,332.682 c -0.932,0 -1.714,0.782 -1.714,1.713 0,0.962 0.782,1.714 1.714,1.714 0.961,0 1.714,-0.751 1.714,-1.714 0,-0.927 -0.752,-1.712 -1.712,-1.712 z"
   fill="#000000"
   fill-rule="evenodd"
   opacity="1"
   stroke="#000000"
   stroke-linecap="butt"
   stroke-linejoin="miter"
   stroke-width="0.036"
   vectornator:layerName="mast"
   id="path247"
   style="clip-rule:evenodd;display:inline;fill-rule:nonzero;stroke-linecap:round;stroke-linejoin:round"
   transform="translate(-6.1902598e-6)"
   inkscape:label="Mast" /></g>
<g
   opacity="1"
   vectornator:layerName="segel"
   id="g247"
   style="display:inline"
   inkscape:label="Segel">
<g
   opacity="1"
   vectornator:layerName="groß"
   id="g244"
   inkscape:label="Groß"
   inkscape:export-filename="groß.svg"
   inkscape:export-xdpi="96"
   inkscape:export-ydpi="96">
<path
   d="m 517.078,349.861 c 5.999,1.072 11.023,1.385 15.498,1.089 4.363,-0.432 7.569,-1.561 10.736,-3.118 3.064,-1.627 5.966,-4.328 8.169,-6.229 2.301,-1.991 3.855,-3.768 5.199,-5.492 l 0.013,-1.207 -39.612,14.964 z"
   fill="#000000"
   fill-rule="evenodd"
   opacity="1"
   stroke="#000000"
   stroke-linecap="butt"
   stroke-linejoin="miter"
   stroke-width="0.036"
   vectornator:layerName="path"
   id="path243" />
<path
   d="m 519.847,349.699 c 4.322,0.669 8.067,0.815 11.809,0.514 3.666,-0.358 6.829,-1.184 10.021,-2.54 3.167,-1.558 6.305,-4.114 8.719,-6.065 2.337,-1.917 4.11,-3.68 5.319,-5.294 l -0.507,-0.37 -35.368,13.739 z"
   fill="#c0c0c0"
   fill-rule="evenodd"
   opacity="1"
   stroke="#000000"
   stroke-linecap="butt"
   stroke-linejoin="miter"
   stroke-width="0.036"
   vectornator:layerName="path"
   id="path244" />
</g>
<g
   opacity="1"
   vectornator:layerName="fok"
   id="g246"
   inkscape:label="Fock"
   inkscape:export-filename="fock.svg"
   inkscape:export-xdpi="96"
   inkscape:export-ydpi="96">
<path
   d="m 554.128,346.992 c 3.153,-0.224 5.858,-0.62 8.046,-1.349 2.149,-0.71 3.64,-1.807 5.077,-2.924 1.39,-1.329 2.505,-2.864 3.437,-4.177 0.826,-1.292 1.598,-2.442 1.964,-3.462 l -0.151,-0.607 -18.375,12.526 z"
   fill="#000000"
   fill-rule="evenodd"
   opacity="1"
   stroke="#000000"
   stroke-linecap="butt"
   stroke-linejoin="miter"
   stroke-width="0.036"
   vectornator:layerName="path"
   id="path245" />
<path
   d="m 555.514,346.564 c 2.21,-0.204 4.238,-0.607 6.087,-1.208 1.825,-0.708 3.326,-1.413 4.79,-2.519 1.452,-1.241 2.717,-2.91 3.722,-4.164 0.977,-1.264 1.671,-2.382 2.081,-3.351 l -0.326,-0.159 -16.352,11.405 z"
   fill="#c0c0c0"
   fill-rule="evenodd"
   opacity="1"
   stroke="#000000"
   stroke-linecap="butt"
   stroke-linejoin="miter"
   stroke-width="0.036"
   vectornator:layerName="path"
   id="path246" />
</g>

</g>
</g></svg>
