<?xml version="1.0" encoding="UTF-8" standalone="no"?>
<!-- Created with Inkscape (http://www.inkscape.org/) -->

<svg
   width="210mm"
   height="297mm"
   viewBox="0 0 210 297"
   version="1.1"
   id="svg1"
   xml:space="preserve"
   xmlns="http://www.w3.org/2000/svg"
   xmlns:svg="http://www.w3.org/2000/svg"
   xmlns:vectornator="http://vectornator.io"><defs
     id="defs1" /><g
     opacity="1"
     vectornator:layerName="achter w"
     id="g217"
     style="clip-rule:evenodd;display:inline;fill-rule:nonzero;stroke-linecap:round;stroke-linejoin:round"
     transform="matrix(1.5092755,0,0,1.5092755,-515.46205,-553.22469)">
<path
   d="m 419.688,496.668 c 5.828,-5.845 9.697,-12.472 11.72,-19.842 2.048,-7.549 1.297,-16.02 0.384,-24.573 -1.037,-8.561 -2.933,-17.299 -6.109,-26.476 l -12.986,0.074 c -2.985,9.209 -4.93,18.023 -5.756,26.593 -0.844,8.624 -1.408,16.962 0.757,24.556 2.155,7.43 6.085,13.846 11.993,19.663 z"
   fill="#000000"
   fill-rule="evenodd"
   opacity="1"
   stroke="#000000"
   stroke-linecap="butt"
   stroke-linejoin="miter"
   stroke-width="0.036"
   vectornator:layerName="path"
   id="path208" />
<path
   d="m 419.674,494.421 c 5.358,-4.86 8.836,-10.853 10.749,-17.878 1.854,-7.233 1.267,-16.22 0.385,-24.573 -0.949,-8.344 -2.808,-16.501 -5.811,-24.93 l -11.721,0.066 c -2.777,8.454 -4.596,16.675 -5.33,25.053 -0.745,8.31 -1.305,17.531 0.72,24.671 1.949,7.084 5.613,12.82 11.004,17.587 z"
   fill="#16a4e9"
   fill-rule="evenodd"
   opacity="1"
   stroke="#000000"
   stroke-linecap="butt"
   stroke-linejoin="miter"
   stroke-width="0.036"
   vectornator:layerName="path"
   id="path209" />
<path
   d="m 419.579,481.714 5.942,-0.04 c 1.438,-3.737 2.427,-8.249 2.855,-13.569 0.424,-5.417 0.769,-11.774 -0.25,-18.498 -1.061,-6.896 -3.076,-14.065 -6.102,-22.122 l -5.628,0.044 c -2.569,7.103 -4.328,13.641 -5.377,19.931 -1.069,6.252 -1.354,11.523 -0.879,17.383 0.426,5.717 1.524,11.302 3.374,16.902 l 6.074,-0.036 z"
   fill="#000000"
   fill-rule="evenodd"
   opacity="1"
   stroke="#000000"
   stroke-linecap="butt"
   stroke-linejoin="miter"
   stroke-width="0.036"
   vectornator:layerName="path"
   id="path210" />
<path
   d="m 419.579,481.022 5.437,-0.041 h 10e-4 c 1.646,-4.397 2.661,-9.184 3.075,-14.667 0.415,-5.482 0.462,-11.397 -0.631,-17.894 -1.101,-6.468 -4.061,-17.121 -5.851,-20.622 l -4.552,-0.466 c -0.083,0.162 -0.166,0.326 -0.248,0.487 -1.747,3.516 -4.538,14.205 -5.566,20.722 -0.988,6.5 -0.856,12.44 -0.377,17.89 0.479,5.451 1.547,10.237 3.274,14.632 l 5.44,-0.053 z"
   fill="#ffffff"
   fill-rule="evenodd"
   opacity="1"
   stroke="#000000"
   stroke-linecap="butt"
   stroke-linejoin="miter"
   stroke-width="0.036"
   vectornator:layerName="path"
   id="path211" />
<path
   d="m 375.936,472.057 c 4.952,3.374 9.49,5.872 13.623,7.37 4.05,1.434 7.529,1.678 11.063,1.593 3.542,-0.175 7.081,-1.464 10.04,-2.288 2.816,-0.925 5.147,-1.798 7.009,-2.857 l 0.479,-1.108 -42.222,-2.702 z"
   fill="#000000"
   fill-rule="evenodd"
   opacity="1"
   stroke="#000000"
   stroke-linecap="butt"
   stroke-linejoin="miter"
   stroke-width="0.036"
   vectornator:layerName="path"
   id="path212" />
<path
   d="m 378.506,473.037 c 3.611,2.395 7.007,4.079 10.528,5.321 3.408,1.141 6.672,1.819 10.17,1.822 3.473,-0.058 7.42,-1.167 10.433,-1.924 2.873,-0.86 5.251,-1.578 7.051,-2.612 l -0.29,-0.537 -37.891,-2.069 z"
   fill="#c0c0c0"
   fill-rule="evenodd"
   opacity="1"
   stroke="#000000"
   stroke-linecap="butt"
   stroke-linejoin="miter"
   stroke-width="0.036"
   vectornator:layerName="path"
   id="path213" />
<path
   d="m 441.806,487.137 c -2.761,1.541 -5.25,2.647 -7.466,3.318 -2.239,0.524 -4.017,0.58 -5.841,0.406 -1.844,-0.324 -3.689,-1.024 -5.147,-1.615 -1.458,-0.592 -2.648,-1.173 -3.568,-1.745 l -0.221,-0.6 22.246,0.235 z"
   fill="#000000"
   fill-rule="evenodd"
   opacity="1"
   stroke="#000000"
   stroke-linecap="butt"
   stroke-linejoin="miter"
   stroke-width="0.036"
   vectornator:layerName="path"
   id="path214" />
<path
   d="m 440.4,487.568 c -1.99,1.07 -3.848,1.837 -5.736,2.346 -1.927,0.454 -3.617,0.662 -5.416,0.569 -1.941,-0.273 -3.802,-0.879 -5.382,-1.434 -1.487,-0.54 -2.717,-1.109 -3.586,-1.652 l 0.185,-0.276 19.928,0.453 z"
   fill="#c0c0c0"
   fill-rule="evenodd"
   opacity="1"
   stroke="#000000"
   stroke-linecap="butt"
   stroke-linejoin="miter"
   stroke-width="0.036"
   vectornator:layerName="path"
   id="path215" />
<path
   d="m 419.285,438.982 c 0.19,-0.003 0.351,-0.711 0.366,-1.556 -0.036,-4.458 -0.063,-8.946 -0.099,-13.405 -0.013,-0.855 -0.175,-1.537 -0.394,-1.544 -0.218,-0.006 -0.38,0.7 -0.367,1.555 0.036,4.459 0.074,8.918 0.1,13.405 -0.017,0.853 0.176,1.545 0.392,1.552 z"
   fill="#000000"
   fill-rule="evenodd"
   opacity="1"
   stroke="#000000"
   stroke-linecap="butt"
   stroke-linejoin="miter"
   stroke-width="0.036"
   vectornator:layerName="path"
   id="path216" />
<path
   d="m 421.107,474.411 c -0.013,-0.951 -0.785,-1.7 -1.735,-1.687 -0.942,-0.015 -1.701,0.787 -1.687,1.736 -0.006,0.913 0.757,1.69 1.707,1.677 0.951,-0.013 1.727,-0.775 1.713,-1.725 z"
   fill="#000000"
   fill-rule="evenodd"
   opacity="1"
   stroke="#000000"
   stroke-linecap="butt"
   stroke-linejoin="miter"
   stroke-width="0.036"
   vectornator:layerName="path"
   id="path217" />
</g></svg>
