<?xml version="1.0" encoding="UTF-8" standalone="no"?>
<!-- Created with Inkscape (http://www.inkscape.org/) -->

<svg
   width="50.533638mm"
   height="147.20213mm"
   viewBox="0 0 50.533638 147.20213"
   version="1.1"
   id="svg1"
   xml:space="preserve"
   xmlns="http://www.w3.org/2000/svg"
   xmlns:svg="http://www.w3.org/2000/svg"
   xmlns:vectornator="http://vectornator.io"><defs
     id="defs1" /><g
     opacity="1"
     vectornator:layerName="im wind"
     id="g278"
     style="clip-rule:evenodd;display:inline;fill-rule:nonzero;stroke-linecap:round;stroke-linejoin:round"
     transform="matrix(1.9050924,0,0,1.9050924,-770.5852,-322.56698)">
<path
   d="m 417.793,169.335 c -5.922,5.832 -9.77,12.295 -11.875,19.751 -2.044,7.365 -1.533,16.023 -0.571,24.591 0.872,8.538 2.856,17.256 5.953,26.515 h 12.987 c 3.096,-9.259 4.96,-17.977 5.922,-26.515 0.872,-8.568 1.413,-17.226 -0.571,-24.591 -2.113,-7.457 -6.021,-13.921 -11.85,-19.749 z"
   fill="#000000"
   fill-rule="evenodd"
   opacity="1"
   stroke="#000000"
   stroke-linecap="butt"
   stroke-linejoin="miter"
   stroke-width="0.036"
   vectornator:layerName="path"
   id="path268" />
<path
   d="m 417.793,171.59 c -5.41,4.87 -8.928,10.642 -10.882,17.797 -1.834,7.094 -1.564,16.173 -0.572,24.561 0.872,8.297 2.676,16.504 5.652,24.981 h 11.725 c 2.886,-8.537 4.6,-16.594 5.502,-24.981 0.841,-8.448 1.232,-17.617 -0.572,-24.712 -2.03,-7.123 -5.453,-12.902 -10.865,-17.645 z"
   fill="#16a4e9"
   fill-rule="evenodd"
   opacity="1"
   stroke="#000000"
   stroke-linecap="butt"
   stroke-linejoin="miter"
   stroke-width="0.036"
   vectornator:layerName="path"
   id="path269" />
<path
   d="m 417.793,184.299 h -5.951 c -1.504,3.698 -2.526,8.177 -2.947,13.558 -0.541,5.322 -0.871,11.635 0.151,18.489 0.962,6.884 2.976,14.039 5.922,22.156 h 5.653 c 2.585,-7.095 4.419,-13.648 5.501,-19.901 1.022,-6.253 1.353,-11.695 0.992,-17.377 -0.391,-5.802 -1.473,-11.333 -3.247,-16.925 h -6.071 z"
   fill="#000000"
   fill-rule="evenodd"
   opacity="1"
   stroke="#000000"
   stroke-linecap="butt"
   stroke-linejoin="miter"
   stroke-width="0.036"
   vectornator:layerName="path"
   id="path270" />
<path
   d="m 417.793,184.992 h -5.441 c -1.684,4.39 -2.736,9.169 -3.187,14.641 -0.451,5.471 -0.511,11.424 0.511,17.887 1.052,6.493 3.938,17.166 5.712,20.683 l 4.54,0.481 c 0.09,-0.15 0.181,-0.301 0.27,-0.481 1.774,-3.517 4.631,-14.19 5.683,-20.683 1.052,-6.463 0.961,-12.416 0.51,-17.887 -0.421,-5.472 -1.473,-10.251 -3.156,-14.641 h -5.428 z"
   fill="#ffffff"
   fill-rule="evenodd"
   opacity="1"
   stroke="#000000"
   stroke-linecap="butt"
   stroke-linejoin="miter"
   stroke-width="0.036"
   vectornator:layerName="path"
   id="path271" />
<path
   d="m 417.559,173.494 c 0.481,0 0.872,0.283 0.872,0.631 0,0.348 -0.391,0.631 -0.872,0.631 -0.481,0 -0.871,-0.283 -0.871,-0.631 0,-0.359 0.392,-0.635 0.868,-0.635"
   fill="#000000"
   fill-rule="evenodd"
   opacity="1"
   stroke="#000000"
   stroke-linecap="butt"
   stroke-linejoin="miter"
   stroke-width="0.036"
   vectornator:layerName="path"
   id="path272" />
<path
   d="m 417.284,174.237 c -0.421,0.661 -0.511,1.383 -0.392,2.164 0.06,0.782 1.142,1.594 1.142,2.556 -0.089,0.841 -1.171,1.863 -1.142,2.825 0.03,0.842 1.264,1.443 1.264,2.616 -0.152,1.202 -1.834,3.217 -2.045,4.179 -0.3,0.751 0.06,1.563 0.602,0.811 0.481,-0.811 2.495,-4.058 2.675,-5.321 0.09,-1.353 -1.503,-1.413 -1.533,-2.285 -0.089,-0.901 1.533,-1.954 1.503,-2.916 -0.059,-1.142 -1.443,-2.254 -1.592,-3.096 -0.241,-0.812 -0.061,-1.413 0.42,-1.684 -0.283,0.042 -0.584,0.101 -0.885,0.167 z"
   fill="#000000"
   fill-rule="evenodd"
   opacity="1"
   stroke="#000000"
   stroke-linecap="butt"
   stroke-linejoin="miter"
   stroke-width="0.036"
   vectornator:layerName="path"
   id="path273" />
<path
   d="m 417.309,174.529 c -0.271,0.601 -0.271,1.202 -0.241,1.683 0.09,0.451 0.331,0.902 0.602,1.233 0.18,0.21 0.3,0.511 0.481,0.782 0.059,0.33 0.059,0.691 0,1.202 -0.211,0.481 -0.722,1.022 -0.842,1.503 -0.211,0.331 -0.271,0.391 -0.181,0.752 -0.03,0.24 0.3,0.751 0.541,1.082 0.18,0.211 0.54,0.481 0.721,0.812 0.12,0.27 0,0.721 -0.121,1.232 -0.27,0.451 -0.571,1.173 -0.902,1.834 -0.361,0.601 -0.932,1.383 -1.022,1.894 -0.18,0.421 -0.09,0.962 0.15,0.812 0.152,-0.331 0.783,-1.473 1.203,-2.165 0.331,-0.721 0.751,-1.292 1.022,-1.834 0.21,-0.721 0.421,-1.262 0.391,-1.743 -0.181,-0.451 -0.631,-0.511 -0.872,-0.752 -0.24,-0.3 -0.54,-0.541 -0.571,-0.841 -0.121,-0.331 -0.121,-0.481 0.12,-0.902 0.211,-0.541 0.962,-1.353 1.203,-1.864 0.06,-0.511 0,-0.872 -0.181,-1.203 -0.27,-0.421 -0.511,-0.932 -0.721,-1.172 -0.301,-0.301 -0.481,-0.541 -0.541,-0.722 -0.151,-0.33 -0.181,-0.691 -0.09,-0.962 -0.03,-0.3 0.121,-0.541 0.211,-0.721 -0.117,-0.025 -0.234,0.008 -0.359,0.033 z"
   fill="#c0c0c0"
   fill-rule="evenodd"
   opacity="1"
   stroke="#000000"
   stroke-linecap="butt"
   stroke-linejoin="miter"
   stroke-width="0.036"
   vectornator:layerName="path"
   id="path274" />
<path
   d="m 417.192,192.633 c -0.872,1.503 -1.112,3.037 -0.842,4.84 0.271,1.744 2.525,3.608 2.586,5.712 -0.151,2.014 -2.556,4.209 -2.586,6.343 -0.03,1.985 3.067,3.277 2.796,5.833 -0.361,2.465 -3.998,7.485 -4.539,9.379 -0.542,1.804 0,3.487 1.292,1.804 1.233,-1.774 5.532,-9.109 6.043,-11.935 0.361,-2.886 -3.458,-3.187 -3.458,-5.081 0,-1.984 3.277,-4.329 3.337,-6.553 -0.151,-2.285 -3.067,-5.171 -3.548,-6.915 -0.451,-1.773 -0.089,-3.066 0.962,-3.757 -0.668,0.083 -1.353,0.2 -2.046,0.325 z"
   fill="#000000"
   fill-rule="evenodd"
   opacity="1"
   stroke="#000000"
   stroke-linecap="butt"
   stroke-linejoin="miter"
   stroke-width="0.036"
   vectornator:layerName="path"
   id="path275" />
<path
   d="m 417.309,193.26 c -0.511,1.413 -0.692,2.675 -0.541,3.787 0.15,1.083 0.811,2.015 1.292,2.796 0.421,0.722 0.783,0.902 1.083,1.714 0.21,0.661 0.21,1.683 0,2.705 -0.361,0.962 -1.473,2.466 -1.833,3.337 -0.451,0.812 -0.602,0.992 -0.451,1.714 0.059,0.631 0.69,1.653 1.201,2.375 0.481,0.631 1.293,1.082 1.624,1.834 0.21,0.781 0.089,1.563 -0.241,2.795 -0.481,1.173 -1.323,2.616 -2.044,4.089 -0.722,1.383 -2.014,3.096 -2.255,4.209 -0.36,0.992 -0.21,2.254 0.331,1.834 0.481,-0.602 1.804,-3.337 2.676,-4.841 0.841,-1.533 1.683,-2.795 2.283,-4.118 0.481,-1.413 0.993,-2.976 0.843,-3.878 -0.24,-0.992 -1.383,-1.173 -1.925,-1.714 -0.631,-0.631 -1.142,-1.202 -1.292,-1.834 -0.211,-0.691 -0.211,-1.022 0.33,-2.044 0.421,-1.112 2.314,-3.096 2.676,-4.208 0.33,-1.173 -0.121,-1.834 -0.422,-2.676 -0.48,-0.962 -1.141,-1.864 -1.622,-2.585 -0.512,-0.692 -1.023,-1.113 -1.173,-1.624 -0.27,-0.691 -0.301,-1.563 -0.21,-2.164 0,-0.692 0.18,-1.113 0.421,-1.594 -0.243,0.017 -0.476,0.051 -0.752,0.076 z"
   fill="#c0c0c0"
   fill-rule="evenodd"
   opacity="1"
   stroke="#000000"
   stroke-linecap="butt"
   stroke-linejoin="miter"
   stroke-width="0.036"
   vectornator:layerName="path"
   id="path276" />
<path
   d="m 418.079,230.094 c -0.208,0 -0.376,0.693 -0.376,1.548 v 13.378 c 0,0.855 0.168,1.548 0.376,1.548 0.207,0 0.376,-0.693 0.376,-1.548 v -13.378 c 0,-0.852 -0.175,-1.545 -0.376,-1.545 z"
   fill="#000000"
   fill-rule="evenodd"
   opacity="1"
   stroke="#000000"
   stroke-linecap="butt"
   stroke-linejoin="miter"
   stroke-width="0.036"
   vectornator:layerName="path"
   id="path277" />
<path
   d="m 417.96,189.944 c 0.946,0 1.715,0.768 1.715,1.714 0,0.946 -0.769,1.713 -1.715,1.713 -0.946,0 -1.713,-0.767 -1.713,-1.713 0,-0.944 0.768,-1.712 1.711,-1.712"
   fill="#000000"
   fill-rule="evenodd"
   opacity="1"
   stroke="#000000"
   stroke-linecap="butt"
   stroke-linejoin="miter"
   stroke-width="0.036"
   vectornator:layerName="path"
   id="path278" />
</g></svg>
