<?xml version="1.0" encoding="UTF-8" standalone="no"?>
<!-- Created with Inkscape (http://www.inkscape.org/) -->

<svg
   width="149.46875mm"
   height="119.12176mm"
   viewBox="0 0 149.46875 119.12176"
   version="1.1"
   id="svg1"
   xml:space="preserve"
   xmlns="http://www.w3.org/2000/svg"
   xmlns:svg="http://www.w3.org/2000/svg"
   xmlns:vectornator="http://vectornator.io"><defs
     id="defs1" /><g
     opacity="1"
     vectornator:layerName="sb achterlich"
     id="g197"
     style="clip-rule:evenodd;display:inline;fill-rule:nonzero;stroke-linecap:round;stroke-linejoin:round"
     transform="matrix(2.3536857,0,0,2.3536857,-653.8327,-890.37209)">
<path
   d="m 277.809,421.487 c 8.041,1.841 15.612,1.72 23.051,-0.459 7.419,-2.332 14.229,-7.233 21.099,-12.584 6.753,-5.389 13.138,-11.586 19.314,-19.152 l -6.91,-10.983 c -9.467,2.311 -17.893,5.268 -25.624,9.084 -7.786,3.753 -15.321,7.793 -20.502,13.557 -5.181,5.701 -8.65,12.43 -10.428,20.529 z"
   fill="#000000"
   fill-rule="evenodd"
   opacity="1"
   stroke="#000000"
   stroke-linecap="butt"
   stroke-linejoin="miter"
   stroke-width="0.036"
   vectornator:layerName="path"
   id="path188" />
<path
   d="m 279.722,420.294 c 6.98,1.949 13.733,1.893 20.838,-0.247 7.051,-2.235 14.427,-7.491 21.099,-12.584 6.562,-5.25 12.559,-11.052 18.157,-18.086 l -6.23,-9.913 c -8.724,2.032 -16.6,4.873 -24.085,8.616 -7.57,3.676 -15.651,8.221 -20.628,13.641 -5.007,5.352 -8.01,11.51 -9.157,18.572 z"
   fill="#16a4e9"
   fill-rule="evenodd"
   opacity="1"
   stroke="#000000"
   stroke-linecap="butt"
   stroke-linejoin="miter"
   stroke-width="0.036"
   vectornator:layerName="path"
   id="path189" />
<path
   d="m 290.49,413.549 3.157,5.005 c 3.968,-0.757 8.195,-2.219 13.033,-4.693 4.811,-2.537 10.254,-5.484 15.587,-9.945 5.218,-4.528 10.382,-10.054 15.63,-16.81 l -3.021,-4.785 c -7.392,1.489 -13.951,3.576 -19.775,5.924 -5.885,2.375 -10.643,5.005 -15.242,8.4 -4.626,3.364 -8.866,7.235 -12.605,11.743 l 3.233,5.157 z"
   fill="#000000"
   fill-rule="evenodd"
   opacity="1"
   stroke="#000000"
   stroke-linecap="butt"
   stroke-linejoin="miter"
   stroke-width="0.036"
   vectornator:layerName="path"
   id="path190" />
<path
   d="m 291.085,413.17 2.883,4.594 c 4.61,-0.892 9.213,-2.57 14.083,-5.072 4.872,-2.535 9.932,-5.627 14.866,-9.964 4.963,-4.334 12.444,-12.476 14.479,-15.833 l -1.984,-4.081 c -0.18,-0.012 -0.362,0.005 -0.574,0.02 -3.912,0.37 -14.465,3.602 -20.545,6.174 -6.02,2.576 -11.028,5.793 -15.409,9.082 -4.38,3.288 -7.895,6.698 -10.71,10.453 l 2.902,4.616 z"
   fill="#ffffff"
   fill-rule="evenodd"
   opacity="1"
   stroke="#000000"
   stroke-linecap="butt"
   stroke-linejoin="miter"
   stroke-width="0.036"
   vectornator:layerName="path"
   id="path191" />
<path
   d="m 297.467,411.007 c 0.818,-0.519 1.041,-1.587 0.552,-2.374 -0.517,-0.818 -1.557,-1.038 -2.373,-0.551 -0.789,0.519 -1.04,1.556 -0.522,2.374 0.49,0.795 1.553,1.043 2.339,0.552 z"
   fill="#000000"
   fill-rule="evenodd"
   opacity="1"
   stroke="#000000"
   stroke-linecap="butt"
   stroke-linejoin="miter"
   stroke-width="0.036"
   vectornator:layerName="path"
   id="path192" />
<path
   d="m 326.679,390.812 c 0.11,0.158 0.788,-0.069 1.51,-0.502 3.778,-2.396 7.554,-4.761 11.33,-7.128 0.724,-0.462 1.24,-0.971 1.133,-1.159 -0.138,-0.19 -0.816,0.034 -1.511,0.501 -3.806,2.363 -7.583,4.759 -11.359,7.126 -0.726,0.461 -1.213,0.973 -1.1,1.164 z"
   fill="#000000"
   fill-rule="evenodd"
   opacity="1"
   stroke="#000000"
   stroke-linecap="butt"
   stroke-linejoin="miter"
   stroke-width="0.036"
   vectornator:layerName="path"
   id="path193" />
<path
   d="m 339.057,415.327 c -5.696,2.237 -10.518,3.597 -14.926,4.174 -4.37,0.456 -7.803,-0.017 -11.148,-0.907 -3.516,-1.021 -6.702,-2.923 -9.282,-4.423 -2.58,-1.5 -4.685,-2.908 -6.185,-4.336 l -0.253,-1.162 41.801,6.652 z"
   fill="#000000"
   fill-rule="evenodd"
   opacity="1"
   stroke="#000000"
   stroke-linecap="butt"
   stroke-linejoin="miter"
   stroke-width="0.036"
   vectornator:layerName="path"
   id="path194" />
<path
   d="m 336.318,415.719 c -4.018,1.505 -7.877,2.419 -11.463,2.87 -3.699,0.351 -6.977,0.25 -10.304,-0.457 -3.439,-0.834 -7.042,-2.795 -9.78,-4.186 -2.739,-1.391 -4.753,-2.793 -6.292,-4.102 l 0.425,-0.483 37.41,6.355 z"
   fill="#c0c0c0"
   fill-rule="evenodd"
   opacity="1"
   stroke="#000000"
   stroke-linecap="butt"
   stroke-linejoin="miter"
   stroke-width="0.036"
   vectornator:layerName="path"
   id="path195" />
<path
   d="m 301.208,428.828 c -3.204,0.145 -5.875,-0.006 -8.134,-0.46 -2.29,-0.455 -3.883,-1.409 -5.388,-2.323 -1.644,-1.075 -2.805,-2.63 -3.873,-3.757 -1.067,-1.158 -1.806,-2.263 -2.345,-3.203 l 0.073,-0.628 19.661,10.378 z"
   fill="#000000"
   fill-rule="evenodd"
   opacity="1"
   stroke="#000000"
   stroke-linecap="butt"
   stroke-linejoin="miter"
   stroke-width="0.036"
   vectornator:layerName="path"
   id="path196" />
<path
   d="m 299.779,428.548 c -2.324,0.053 -4.271,-0.108 -6.173,-0.507 -1.899,-0.431 -3.542,-1.084 -5.049,-1.97 -1.647,-1.044 -3.051,-2.556 -4.148,-3.715 -1.097,-1.158 -1.964,-2.152 -2.473,-3.09 l 0.314,-0.19 17.531,9.463 z"
   fill="#c0c0c0"
   fill-rule="evenodd"
   opacity="1"
   stroke="#000000"
   stroke-linecap="butt"
   stroke-linejoin="miter"
   stroke-width="0.036"
   vectornator:layerName="path"
   id="path197" />
</g></svg>
