<?xml version="1.0" encoding="UTF-8" standalone="no"?>
<!-- Created with Inkscape (http://www.inkscape.org/) -->

<svg
   width="129.65114mm"
   height="103.66253mm"
   viewBox="0 0 129.65114 103.66253"
   version="1.1"
   id="svg1"
   xml:space="preserve"
   xmlns="http://www.w3.org/2000/svg"
   xmlns:svg="http://www.w3.org/2000/svg"
   xmlns:vectornator="http://vectornator.io"><defs
     id="defs1" /><g
     opacity="1"
     vectornator:layerName="bb leicht am w"
     id="g257"
     style="clip-rule:evenodd;display:inline;fill-rule:nonzero;stroke-linecap:round;stroke-linejoin:round"
     transform="matrix(2.034892,0,0,2.034892,-1000.7515,-502.01094)">
<path
   d="m 555.488,248.083 c -8.12,-1.881 -15.578,-1.858 -23.059,0.332 -7.452,2.129 -14.364,7.128 -21.176,12.454 -6.841,5.298 -13.203,11.483 -19.435,19.017 l 6.843,11.034 c 9.464,-2.251 17.913,-5.223 25.707,-8.927 7.761,-3.793 15.215,-7.786 20.573,-13.428 5.141,-5.75 8.667,-12.411 10.545,-20.474 z"
   fill="#000000"
   fill-rule="evenodd"
   opacity="1"
   stroke="#000000"
   stroke-linecap="butt"
   stroke-linejoin="miter"
   stroke-width="0.036"
   vectornator:layerName="path"
   id="path248" />
<path
   d="m 553.57,249.254 c -6.98,-2.007 -13.808,-2.003 -20.839,0.142 -7.153,2.12 -14.57,7.255 -21.175,12.455 -6.638,5.08 -12.619,10.983 -18.265,17.957 l 6.178,9.973 c 8.688,-2.048 16.542,-4.789 24.127,-8.487 7.491,-3.754 15.595,-8.129 20.69,-13.492 5.009,-5.454 8.063,-11.448 9.285,-18.554 z"
   fill="#16a4e9"
   fill-rule="evenodd"
   opacity="1"
   stroke="#000000"
   stroke-linecap="butt"
   stroke-linejoin="miter"
   stroke-width="0.036"
   vectornator:layerName="path"
   id="path249" />
<path
   d="m 542.776,255.942 -3.135,-5.045 c -3.949,0.666 -8.263,2.215 -13.059,4.651 -4.919,2.35 -10.417,5.41 -15.661,9.845 -5.244,4.466 -10.488,9.924 -15.717,16.735 l 2.977,4.779 c 7.47,-1.558 13.848,-3.442 19.82,-5.794 5.821,-2.348 10.61,-5.026 15.289,-8.3 4.676,-3.395 8.826,-7.254 12.687,-11.707 l -3.195,-5.163 z"
   fill="#000000"
   fill-rule="evenodd"
   opacity="1"
   stroke="#000000"
   stroke-linecap="butt"
   stroke-linejoin="miter"
   stroke-width="0.036"
   vectornator:layerName="path"
   id="path250" />
<path
   d="m 542.186,256.32 -2.882,-4.632 c -4.604,0.897 -9.215,2.515 -14.098,5.014 -4.884,2.529 -9.992,5.577 -14.94,9.883 -4.978,4.307 -12.514,12.393 -14.575,15.736 l 1.964,4.119 c 0.18,-0.005 0.36,-0.04 0.57,-0.047 3.9,-0.333 14.507,-3.523 20.564,-6.028 6.056,-2.536 11.069,-5.731 15.479,-8.998 4.409,-3.266 7.941,-6.685 10.771,-10.413 l -2.844,-4.64 z"
   fill="#ffffff"
   fill-rule="evenodd"
   opacity="1"
   stroke="#000000"
   stroke-linecap="butt"
   stroke-linejoin="miter"
   stroke-width="0.036"
   vectornator:layerName="path"
   id="path251" />
<path
   d="m 548.597,272.929 c 1.691,-2.67 2.91,-5.054 3.653,-7.273 0.622,-2.215 0.715,-4.053 0.629,-5.855 -0.213,-1.978 -0.898,-3.671 -1.366,-5.22 -0.471,-1.55 -1.076,-2.644 -1.589,-3.62 l -0.579,-0.253 -0.749,22.214 z"
   fill="#000000"
   fill-rule="evenodd"
   opacity="1"
   stroke="#000000"
   stroke-linecap="butt"
   stroke-linejoin="miter"
   stroke-width="0.036"
   vectornator:layerName="path"
   id="path252" />
<path
   d="m 549.064,271.569 c 1.173,-1.932 2.048,-3.764 2.621,-5.616 0.515,-1.851 0.82,-3.605 0.794,-5.379 -0.177,-1.829 -0.725,-3.947 -1.163,-5.437 -0.471,-1.61 -0.926,-2.678 -1.497,-3.653 l -0.296,0.16 -0.461,19.924 z"
   fill="#c0c0c0"
   fill-rule="evenodd"
   opacity="1"
   stroke="#000000"
   stroke-linecap="butt"
   stroke-linejoin="miter"
   stroke-width="0.036"
   vectornator:layerName="path"
   id="path253" />
<path
   d="m 516.863,297.627 c 5.1,-3.347 9.091,-6.481 12.087,-9.733 2.936,-3.28 4.433,-6.335 5.746,-9.564 1.247,-3.378 1.399,-7.172 1.787,-10.132 0.269,-2.956 0.339,-5.515 0.094,-7.552 l -0.811,-0.907 -18.905,37.897 z"
   fill="#000000"
   fill-rule="evenodd"
   opacity="1"
   stroke="#000000"
   stroke-linecap="butt"
   stroke-linejoin="miter"
   stroke-width="0.036"
   vectornator:layerName="path"
   id="path254" />
<path
   d="m 518.78,295.611 c 3.563,-2.456 6.524,-4.895 8.995,-7.649 2.438,-2.783 4.277,-5.548 5.624,-8.659 1.281,-3.258 1.783,-7.395 2.261,-10.357 0.447,-3.022 0.52,-5.491 0.337,-7.53 l -0.63,0.08 -16.584,34.115 z"
   fill="#c0c0c0"
   fill-rule="evenodd"
   opacity="1"
   stroke="#000000"
   stroke-linecap="butt"
   stroke-linejoin="miter"
   stroke-width="0.036"
   vectornator:layerName="path"
   id="path255" />
<path
   d="m 506.455,278.495 c -0.127,-0.177 -0.782,0.024 -1.519,0.468 -3.807,2.375 -7.582,4.719 -11.389,7.064 -0.737,0.444 -1.232,0.972 -1.107,1.148 0.096,0.178 0.782,-0.054 1.489,-0.497 3.807,-2.346 7.613,-4.691 11.419,-7.066 0.721,-0.44 1.215,-0.932 1.118,-1.113 z"
   fill="#000000"
   fill-rule="evenodd"
   opacity="1"
   stroke="#000000"
   stroke-linecap="butt"
   stroke-linejoin="miter"
   stroke-width="0.036"
   vectornator:layerName="path"
   id="path256" />
<path
   d="m 535.753,258.443 c -0.796,0.507 -1.064,1.568 -0.558,2.364 0.508,0.826 1.568,1.064 2.365,0.557 0.796,-0.506 1.064,-1.537 0.557,-2.363 -0.509,-0.794 -1.57,-1.037 -2.365,-0.561 z"
   fill="#000000"
   fill-rule="evenodd"
   opacity="1"
   stroke="#000000"
   stroke-linecap="butt"
   stroke-linejoin="miter"
   stroke-width="0.036"
   vectornator:layerName="path"
   id="path257" />
</g></svg>
